<svg width="24" height="24" stroke="none" fill="currentColor" xmlns="http://www.w3.org/2000/svg">
<path fill-rule="evenodd" clip-rule="evenodd" d="M3.74428 2.91052C2.8729 2.91052 2.1665 3.61692 2.1665 4.4883V14.8772C2.1665 15.7486 2.8729 16.455 3.74428 16.455H20.3665C21.2379 16.455 21.9443 15.7486 21.9443 14.8772V4.4883C21.9443 3.61692 21.2379 2.91052 20.3665 2.91052H3.74428ZM12.5554 17.455H20.3665C21.7902 17.455 22.9443 16.3009 22.9443 14.8772V4.4883C22.9443 3.06463 21.7902 1.91052 20.3665 1.91052H3.74428C2.32061 1.91052 1.1665 3.06463 1.1665 4.4883V14.8772C1.1665 16.3009 2.32061 17.455 3.74428 17.455H11.5554V20.6105H7.89984C7.62369 20.6105 7.39984 20.8344 7.39984 21.1105C7.39984 21.3867 7.62369 21.6105 7.89984 21.6105H16.2109C16.4871 21.6105 16.7109 21.3867 16.7109 21.1105C16.7109 20.8344 16.4871 20.6105 16.2109 20.6105H12.5554V17.455ZM10.5836 4.96106C10.851 4.69362 11.2137 4.54337 11.5919 4.54337H12.518C12.8962 4.54337 13.2589 4.69362 13.5264 4.96106C13.7938 5.22849 13.9441 5.59122 13.9441 5.96943V7.78457H15.7592C16.1374 7.78457 16.5001 7.93481 16.7676 8.20225C17.035 8.46968 17.1852 8.83241 17.1852 9.21062V10.1367C17.1852 10.5149 17.035 10.8776 16.7676 11.145C16.5001 11.4125 16.1374 11.5627 15.7592 11.5627H13.9441V13.3779C13.9441 13.7561 13.7938 14.1188 13.5264 14.3862C13.2589 14.6537 12.8962 14.8039 12.518 14.8039H11.5919C11.2137 14.8039 10.851 14.6537 10.5836 14.3862C10.3161 14.1188 10.1659 13.7561 10.1659 13.3779V11.5627H8.35075C7.97254 11.5627 7.60982 11.4125 7.34238 11.145C7.07494 10.8776 6.9247 10.5149 6.9247 10.1367V9.21062C6.9247 8.83241 7.07494 8.46968 7.34238 8.20225C7.60982 7.93481 7.97254 7.78457 8.35075 7.78457H10.1659V5.96943C10.1659 5.59122 10.3161 5.22849 10.5836 4.96106ZM11.5919 5.54337C11.4789 5.54337 11.3706 5.58826 11.2907 5.66816C11.2108 5.74806 11.1659 5.85643 11.1659 5.96943V7.82154C11.1659 8.07695 11.0644 8.3219 10.8838 8.5025C10.7032 8.6831 10.4583 8.78457 10.2029 8.78457H8.35075C8.23776 8.78457 8.12939 8.82945 8.04949 8.90935C7.96958 8.98925 7.9247 9.09762 7.9247 9.21062V10.1367C7.9247 10.2497 7.96958 10.358 8.04949 10.4379C8.12939 10.5178 8.23776 10.5627 8.35075 10.5627H10.2029C10.4583 10.5627 10.7032 10.6642 10.8838 10.8448C11.0644 11.0254 11.1659 11.2703 11.1659 11.5258V13.3779C11.1659 13.4909 11.2108 13.5992 11.2907 13.6791C11.3706 13.759 11.4789 13.8039 11.5919 13.8039H12.518C12.631 13.8039 12.7394 13.759 12.8193 13.6791C12.8992 13.5992 12.9441 13.4909 12.9441 13.3779V11.5258C12.9441 11.2703 13.0455 11.0254 13.2261 10.8448C13.4067 10.6642 13.6517 10.5627 13.9071 10.5627H15.7592C15.8722 10.5627 15.9806 10.5178 16.0605 10.4379C16.1404 10.358 16.1852 10.2497 16.1852 10.1367V9.21062C16.1852 9.09762 16.1404 8.98926 16.0605 8.90935C15.9806 8.82945 15.8722 8.78457 15.7592 8.78457H13.9071C13.6517 8.78457 13.4067 8.6831 13.2261 8.5025C13.0455 8.3219 12.9441 8.07695 12.9441 7.82154V5.96943C12.9441 5.85643 12.8992 5.74806 12.8193 5.66816C12.7394 5.58826 12.631 5.54337 12.518 5.54337H11.5919Z"/>
</svg>
